<?xml version="1.0" encoding="UTF-8"?>
<svg id="Layer_1" xmlns="http://www.w3.org/2000/svg" viewBox="0 0 403.12 208.35">
  <rect x="0" width="403.12" height="208.35" fill="none"/>
  <path d="M24.11,89.97c-16.96,0-21.37-10.29-21.37-31.95S7.84,25.67,24.99,25.67s22.64,11.27,22.64,32.25c0,16.66-3.14,20.97-3.14,23.82,0,4.61,5.1,6.08,5.1,10.78,0,2.65-1.37,4.51-7.15,4.51s-7.74-1.86-8.23-5.49c-.2-1.76-.88-2.84-2.65-2.84-1.18,0-2.74,1.27-7.45,1.27ZM42.73,47.92c0-8.13-5.78-11.66-17.74-11.66s-17.45,3.53-17.45,11.66c0,7.45,5.88,10.58,17.54,10.58s17.64-3.04,17.64-10.58Z" fill="#f3e7dc"/>
  <path d="M53.21,73.7c0-12.54,8.92-17.64,9.02-26.27.2-4.7-3.23-10.88-3.04-16.76.2-3.43,2.45-5,5.88-5s5.68,1.47,5.78,4.9c0,6.17-5.39,11.27-5.29,15.88.1,6.37,3.92,7.84,12.25,7.84,10,0,13.33-4.02,13.43-8.92.2-5-4.12-9.51-4.02-14.41.1-2.74,1.86-5.29,5.49-5.29s5.19,1.76,5.39,5c.29,4.51-3.72,10.09-3.53,15.58.1,10.19,11.76,18.03,11.66,33.13,0,6.47-2.65,10.39-7.84,10.39-4.61,0-7.64-2.84-7.64-10.49s3.82-14.7,3.82-20.19c0-3.43-1.27-4.61-3.82-4.61s-4.61,2.06-4.7,6.67c-.1,4.61.69,8.23.59,13.03-.2,12.25-6.17,15.68-16.17,15.68-11.07,0-17.15-5.98-17.25-16.17Z" fill="#f3e7dc"/>
  <path d="M130.14,30.87c.2,5.68-4.61,9.7-4.41,16.27.1,11.76,12.05,14.41,11.96,29.4,0,10.49-5.78,13.82-13.72,13.82s-13.62-3.33-13.72-13.82c-.1-15,11.76-17.64,11.96-29.4.1-6.57-4.7-10.58-4.51-16.27.2-3.92,2.84-5.19,6.17-5.19s5.98,1.27,6.27,5.19Z" fill="#f3e7dc"/>
  <path d="M171.89,72.81c-.69-27.54-4.51-36.46-11.08-36.46-3.43,0-4.51,1.86-4.51,10.78,0,12.94,12.35,15.78,12.35,29.3,0,10-5.59,13.33-13.04,13.33s-13.43-3.43-13.52-13.82c-.1-15,10.98-15.68,11.27-28.81.1-7.25-4.41-9.6-4.21-15.29.2-4.41,2.84-5.78,7.35-5.78,10.39,0,11.76,3.23,13.03,13.52.98,7.94,5.59,12.74,10.29,12.74,3.72,0,4.41-2.45,4.51-6.86,0-7.45-4.8-8.53-4.8-14.21.1-3.92,2.45-5.19,5.68-5.19s5.78,1.27,5.98,5.39c.29,6.08-4.31,8.33-4.12,15.68.39,12.94,9.41,15.39,9.31,28.42-.1,10.88-4.7,14.21-11.56,14.21-7.35,0-12.64-4.31-12.94-16.96Z" fill="#f3e7dc"/>
  <path d="M232.06,72.81c-.69-27.54-4.51-36.46-11.08-36.46-3.43,0-4.51,1.86-4.51,10.78,0,12.94,12.35,15.78,12.35,29.3,0,10-5.59,13.33-13.04,13.33s-13.43-3.43-13.52-13.82c-.1-15,10.98-15.68,11.27-28.81.1-7.25-4.41-9.6-4.21-15.29.2-4.41,2.84-5.78,7.35-5.78,10.39,0,11.76,3.23,13.03,13.52.98,7.94,5.59,12.74,10.29,12.74,3.72,0,4.41-2.45,4.51-6.86,0-7.45-4.8-8.53-4.8-14.21.1-3.92,2.45-5.19,5.68-5.19s5.78,1.27,5.98,5.39c.29,6.08-4.31,8.33-4.12,15.68.39,12.94,9.41,15.39,9.31,28.42-.1,10.88-4.7,14.21-11.56,14.21-7.35,0-12.64-4.31-12.94-16.96Z" fill="#f3e7dc"/>
  <path d="M17.35,183.26c-9.51,0-15.68-4.31-15.78-13.62,0-13.23,6.57-21.76,6.86-29.7.1-4.02-2.55-7.25-2.35-12.05.29-5.1,3.53-8.82,16.17-8.82,15.58,0,20.68,2.84,20.68,8.13,0,1.96-.69,4.61-3.63,4.61-4.61,0-8.62-2.45-17.35-2.45-6.47,0-9.9,1.67-9.9,7.74,0,4.9,2.16,7.15,7.35,7.15,5.59,0,9.02-2.94,15.58-2.94,4.7,0,6.47,1.76,6.47,5.39,0,2.45-1.76,4.7-5.29,4.7-6.47,0-11.66-5.29-17.05-5.29-2.55,0-3.43,1.57-3.43,3.14,0,6.96,16.47,11.47,16.47,22.25,0,6.57-5.19,11.76-14.8,11.76Z" fill="#f3e7dc"/>
  <path d="M82.03,165.81c0,11.17-4.7,17.35-16.86,17.35-14.31,0-18.62-7.64-18.62-16.07-.1-13.53,9.41-19.21,9.51-27.64.1-4.41-3.43-9.9-3.14-15.29.2-3.53,2.65-5.1,6.17-5.1,3.33,0,5.49,1.67,5.49,5.1.1,5.59-5.29,9.11-5.29,14.8.1,7.74,2.94,10.88,6.66,10.88,2.94,0,4.9-.59,7.45-.59,5.39,0,8.62,5.29,8.62,16.56Z" fill="#f3e7dc"/>
  <path d="M129.36,137.1c-1.57,15.68,8.23,19.7,8.23,32.83-.1,9.31-4.7,13.33-12.25,13.33s-12.35-4.02-12.35-13.33c0-12.15,10.39-14.7,10.39-20.48,0-2.45-1.76-4.02-11.86-4.02s-11.76,1.57-11.76,4.02c0,5.78,10.39,8.33,10.39,20.48,0,9.31-4.9,13.33-12.35,13.33s-12.25-4.02-12.25-13.33c-.1-13.13,9.8-17.15,8.23-32.83-1.08-10.49,0-18.13,17.74-18.13s18.92,7.65,17.84,18.13ZM125.83,137c0-5.78-4.61-7.25-14.31-7.25s-14.21,1.47-14.21,7.25c0,4.8,3.82,6.66,14.21,6.66s14.31-1.86,14.31-6.66Z" fill="#f3e7dc"/>
  <path d="M171.3,165.81c-.69-27.54-4.51-36.46-11.08-36.46-3.43,0-4.51,1.86-4.51,10.78,0,12.94,12.35,15.78,12.35,29.3,0,10-5.59,13.33-13.04,13.33s-13.43-3.43-13.52-13.82c-.1-15,10.98-15.68,11.27-28.81.1-7.25-4.41-9.6-4.21-15.29.2-4.41,2.84-5.78,7.35-5.78,10.39,0,11.76,3.23,13.03,13.52.98,7.94,5.59,12.74,10.29,12.74,3.72,0,4.41-2.45,4.51-6.86,0-7.45-4.8-8.53-4.8-14.21.1-3.92,2.45-5.19,5.68-5.19s5.78,1.27,5.98,5.39c.29,6.08-4.31,8.33-4.12,15.68.39,12.94,9.41,15.39,9.31,28.42-.1,10.88-4.7,14.21-11.56,14.21-7.35,0-12.64-4.31-12.94-16.96Z" fill="#f3e7dc"/>
  <path d="M221.58,123.87c.2,5.68-4.61,9.7-4.41,16.27.1,11.76,12.05,14.41,11.96,29.4,0,10.49-5.78,13.82-13.72,13.82s-13.62-3.33-13.72-13.82c-.1-15,11.76-17.64,11.96-29.4.1-6.57-4.7-10.58-4.51-16.27.2-3.92,2.84-5.19,6.17-5.19s5.98,1.27,6.27,5.19Z" fill="#f3e7dc"/>
  <path d="M281.65,174.83c-.1,4.8-2.35,7.84-6.57,7.84-4.51,0-7.45-2.45-7.45-8.13,0-7.64,4.7-13.43,4.7-19.5,0-1.96-1.18-3.14-3.14-3.14-2.16,0-4.12,1.57-4.21,5.19-.29,15.19-2.74,25.78-13.82,25.78-13.52,0-17.84-9.6-17.84-29.79,0-22.54,6.27-34.11,27.34-34.11,11.86.1,16.76,2.94,16.76,8.04,0,2.74-1.18,4.21-4.41,4.21-5.98,0-11.56-2.35-20.09-2.35-6.96,0-12.54,3.63-12.54,11.17s5.88,11.47,18.13,11.47c10.78,0,12.15-2.16,12.15-4.02.1-5-10.88-3.63-10.88-7.74.1-2.84,3.33-3.63,11.47-3.63,7.45,0,10.19,1.27,10.39,4.02.2,3.82-7.94,2.84-7.74,9.31-.2,7.55,7.74,14.41,7.74,25.38Z" fill="#f3e7dc"/>
  <path d="M329.18,137.1c-1.57,15.68,8.23,19.7,8.23,32.83-.1,9.31-4.7,13.33-12.25,13.33s-12.35-4.02-12.35-13.33c0-12.15,10.39-14.7,10.39-20.48,0-2.45-1.76-4.02-11.86-4.02s-11.76,1.57-11.76,4.02c0,5.78,10.39,8.33,10.39,20.48,0,9.31-4.9,13.33-12.35,13.33s-12.25-4.02-12.25-13.33c-.1-13.13,9.8-17.15,8.23-32.83-1.08-10.49,0-18.13,17.74-18.13s18.92,7.65,17.84,18.13ZM325.65,137c0-5.78-4.61-7.25-14.31-7.25s-14.21,1.47-14.21,7.25c0,4.8,3.82,6.66,14.21,6.66s14.31-1.86,14.31-6.66Z" fill="#f3e7dc"/>
  <path d="M371.12,165.81c-.69-27.54-4.51-36.46-11.08-36.46-3.43,0-4.51,1.86-4.51,10.78,0,12.94,12.35,15.78,12.35,29.3,0,10-5.59,13.33-13.04,13.33s-13.43-3.43-13.52-13.82c-.1-15,10.98-15.68,11.27-28.81.1-7.25-4.41-9.6-4.21-15.29.2-4.41,2.84-5.78,7.35-5.78,10.39,0,11.76,3.23,13.03,13.52.98,7.94,5.59,12.74,10.29,12.74,3.72,0,4.41-2.45,4.51-6.86,0-7.45-4.8-8.53-4.8-14.21.1-3.92,2.45-5.19,5.68-5.19s5.78,1.27,5.98,5.39c.29,6.08-4.31,8.33-4.12,15.68.39,12.94,9.41,15.39,9.31,28.42-.1,10.88-4.7,14.21-11.56,14.21-7.35,0-12.64-4.31-12.94-16.96Z" fill="#f3e7dc"/>
</svg>