<svg width="29" height="28" viewBox="0 0 29 28" fill="none" xmlns="http://www.w3.org/2000/svg">
<path d="M8.61136 28C8.36203 28 8.14669 27.9093 7.96536 27.728C7.78403 27.5467 7.69336 27.3313 7.69336 27.082V22.832C7.69336 22.3787 7.53469 21.9933 7.21736 21.676C6.90003 21.3587 6.51469 21.2 6.06136 21.2H1.81136C1.56203 21.2 1.34669 21.1093 1.16536 20.928C0.984026 20.7467 0.893359 20.5313 0.893359 20.282V1.718C0.893359 1.46867 0.984026 1.25333 1.16536 1.072C1.34669 0.890666 1.56203 0.8 1.81136 0.8H20.3754C20.6247 0.8 20.84 0.890666 21.0214 1.072C21.2027 1.25333 21.2934 1.46867 21.2934 1.718V5.968C21.2934 6.39867 21.452 6.784 21.7694 7.124C22.1094 7.44133 22.4947 7.6 22.9254 7.6H27.1754C27.4247 7.6 27.64 7.69067 27.8214 7.872C28.0027 8.05333 28.0934 8.26867 28.0934 8.518V27.082C28.0934 27.3313 28.0027 27.5467 27.8214 27.728C27.64 27.9093 27.4247 28 27.1754 28H23.6734C23.424 28 23.2087 27.9093 23.0274 27.728L21.9054 26.64C21.18 25.892 20.4094 25.1213 19.5934 24.328C18.8 23.5347 18.0747 22.798 17.4174 22.118C17.3267 22.0273 17.202 21.982 17.0434 21.982C16.6807 21.982 16.4994 22.1633 16.4994 22.526V27.082C16.4994 27.3313 16.4087 27.5467 16.2274 27.728C16.046 27.9093 15.8307 28 15.5814 28H8.61136ZM7.69336 19.568C7.69336 19.9987 7.85203 20.384 8.16936 20.724C8.50936 21.0413 8.89469 21.2 9.32536 21.2H15.1734C15.4 21.2 15.57 21.0867 15.6834 20.86C15.706 20.8147 15.7174 20.7467 15.7174 20.656C15.7174 20.52 15.6607 20.3953 15.5474 20.282L11.3654 16.066C11.184 15.8847 11.0934 15.6693 11.0934 15.42V11.918C11.0934 11.6687 11.184 11.4533 11.3654 11.272C11.5467 11.0907 11.762 11 12.0114 11H15.5134C15.7627 11 15.978 11.0907 16.1594 11.272C18.3807 13.4933 19.888 14.9893 20.6814 15.76C20.7494 15.828 20.84 15.862 20.9534 15.862C21.044 15.862 21.1234 15.828 21.1914 15.76C21.2594 15.692 21.2934 15.6127 21.2934 15.522V9.232C21.2934 8.77867 21.1347 8.39333 20.8174 8.076C20.5 7.75867 20.1147 7.6 19.6614 7.6H8.61136C8.36203 7.6 8.14669 7.69067 7.96536 7.872C7.78403 8.05333 7.69336 8.26867 7.69336 8.518V19.568Z" fill="#EDEDED"/>
</svg>