<svg width="50" height="50" viewBox="0 0 50 50" xmlns="http://www.w3.org/2000/svg">
<path d="M19.8036 36.6206C19.5836 36.6206 19.3936 36.5406 19.2336 36.3806C19.0736 36.2206 18.9936 36.0306 18.9936 35.8106V32.0606C18.9936 31.6606 18.8536 31.3206 18.5736 31.0406C18.2936 30.7606 17.9536 30.6206 17.5536 30.6206H13.8036C13.5836 30.6206 13.3936 30.5406 13.2336 30.3806C13.0736 30.2206 12.9936 30.0306 12.9936 29.8106V13.4306C12.9936 13.2106 13.0736 13.0206 13.2336 12.8606C13.3936 12.7006 13.5836 12.6206 13.8036 12.6206H30.1836C30.4036 12.6206 30.5936 12.7006 30.7536 12.8606C30.9136 13.0206 30.9936 13.2106 30.9936 13.4306V17.1806C30.9936 17.5606 31.1336 17.9006 31.4136 18.2006C31.7136 18.4806 32.0536 18.6206 32.4336 18.6206H36.1836C36.4036 18.6206 36.5936 18.7006 36.7536 18.8606C36.9136 19.0206 36.9936 19.2106 36.9936 19.4306V35.8106C36.9936 36.0306 36.9136 36.2206 36.7536 36.3806C36.5936 36.5406 36.4036 36.6206 36.1836 36.6206H33.0936C32.8736 36.6206 32.6836 36.5406 32.5236 36.3806L31.5336 35.4206C30.8936 34.7606 30.2136 34.0806 29.4936 33.3806C28.7936 32.6806 28.1536 32.0306 27.5736 31.4306C27.4936 31.3506 27.3836 31.3106 27.2436 31.3106C26.9236 31.3106 26.7636 31.4706 26.7636 31.7906V35.8106C26.7636 36.0306 26.6836 36.2206 26.5236 36.3806C26.3636 36.5406 26.1736 36.6206 25.9536 36.6206H19.8036ZM18.9936 29.1806C18.9936 29.5606 19.1336 29.9006 19.4136 30.2006C19.7136 30.4806 20.0536 30.6206 20.4336 30.6206H25.5936C25.7936 30.6206 25.9436 30.5206 26.0436 30.3206C26.0636 30.2806 26.0736 30.2206 26.0736 30.1406C26.0736 30.0206 26.0236 29.9106 25.9236 29.8106L22.2336 26.0906C22.0736 25.9306 21.9936 25.7406 21.9936 25.5206V22.4306C21.9936 22.2106 22.0736 22.0206 22.2336 21.8606C22.3936 21.7006 22.5836 21.6206 22.8036 21.6206H25.8936C26.1136 21.6206 26.3036 21.7006 26.4636 21.8606C28.4236 23.8206 29.7536 25.1406 30.4536 25.8206C30.5136 25.8806 30.5936 25.9106 30.6936 25.9106C30.7736 25.9106 30.8436 25.8806 30.9036 25.8206C30.9636 25.7606 30.9936 25.6906 30.9936 25.6106V20.0606C30.9936 19.6606 30.8536 19.3206 30.5736 19.0406C30.2936 18.7606 29.9536 18.6206 29.5536 18.6206H19.8036C19.5836 18.6206 19.3936 18.7006 19.2336 18.8606C19.0736 19.0206 18.9936 19.2106 18.9936 19.4306V29.1806Z" fill="#3d3d3d"/>
</svg>
