<?xml version="1.0" encoding="UTF-8"?>
<svg id="Layer_1" xmlns="http://www.w3.org/2000/svg" viewBox="0 0 288 288">
  <path d="M279.12,251.64c-9.44-.77-18.53-2.75-27.12-5.79-1.53-.54-3.04-1.11-4.53-1.72-11.64-4.71-22.27-11.39-31.47-19.63-2.99-2.67-5.83-5.51-8.5-8.5-5.37-6-10.08-12.61-14.01-19.71,5.03-4.77,9.38-10.25,12.88-16.29,6.12-10.59,9.63-22.89,9.63-36s-3.51-25.41-9.63-36c-3.5-6.04-7.85-11.52-12.88-16.29-4.08-3.86-8.6-7.25-13.49-10.08-5.57-3.22-11.62-5.72-18.01-7.36h-.01c-5.75-1.48-11.77-2.27-17.98-2.27-13.11,0-25.41,3.51-36,9.63-10.93,6.33-20.04,15.44-26.37,26.37-6.12,10.59-9.63,22.89-9.63,36s3.51,25.41,9.63,36c6.33,10.93,15.44,20.04,26.37,26.37,10.59,6.12,22.89,9.63,36,9.63,6.21,0,12.23-.79,17.98-2.27h.01c.42.76.85,1.52,1.28,2.27,4.81,8.31,10.42,16.09,16.73,23.23,1.46,1.67,2.97,3.3,4.53,4.9-1.49.61-3,1.18-4.53,1.72-11.26,3.98-23.38,6.15-36,6.15s-24.74-2.17-36-6.15c-13.42-4.74-25.61-12.05-36-21.35-2.99-2.67-5.83-5.51-8.5-8.5-9.3-10.39-16.61-22.58-21.35-36-3.98-11.26-6.15-23.38-6.15-36s2.17-24.74,6.15-36c4.74-13.42,12.05-25.61,21.35-36,2.67-2.99,5.51-5.83,8.5-8.5,10.39-9.3,22.58-16.61,36-21.35,11.26-3.98,23.38-6.15,36-6.15s24.74,2.17,36,6.15c1.53.54,3.04,1.11,4.53,1.72,11.64,4.71,22.27,11.39,31.47,19.63,2.99,2.67,5.83,5.51,8.5,8.5,5.37,6,10.08,12.61,14.01,19.71,2.88,5.18,5.34,10.63,7.34,16.29,3.98,11.26,6.15,23.38,6.15,36s-2.17,24.74-6.15,36c-.49,1.38-1,2.74-1.54,4.09-3.29,8.23-.12,17.73,7.54,22.19.05.03.1.06.15.09,5.57,3.22,11.62,5.72,18.01,7.36h.01c5.82-10.5,10.37-21.82,13.44-33.73.02-.09.05-.18.07-.28,2.92-11.42,4.47-23.39,4.47-35.72s-1.55-24.3-4.47-35.72c-.02-.1-.05-.19-.07-.28-3.07-11.91-7.62-23.23-13.44-33.73h-.01c-.42-.76-.85-1.52-1.28-2.27-4.81-8.31-10.42-16.09-16.73-23.23-1.46-1.67-2.97-3.3-4.53-4.9-2.63-2.74-5.38-5.36-8.24-7.87-7.14-6.31-14.92-11.92-23.23-16.73-11.14-6.45-23.22-11.44-36-14.73-11.5-2.96-23.57-4.54-36-4.54s-24.5,1.58-36,4.54c-12.78,3.29-24.86,8.28-36,14.73-8.31,4.81-16.09,10.42-23.23,16.73-4.53,3.98-8.79,8.24-12.77,12.77-6.31,7.14-11.92,14.92-16.73,23.23-6.45,11.14-11.44,23.22-14.73,36-2.96,11.5-4.54,23.57-4.54,36s1.58,24.5,4.54,36c3.29,12.78,8.28,24.86,14.73,36,4.81,8.31,10.42,16.09,16.73,23.23,3.98,4.53,8.24,8.79,12.77,12.77,7.14,6.31,14.92,11.92,23.23,16.73,11.14,6.45,23.22,11.44,36,14.73,11.5,2.96,23.57,4.54,36,4.54s24.5-1.58,36-4.54c12.78-3.29,24.86-8.28,36-14.73,11.14,6.45,23.22,11.44,36,14.73,8.25,2.12,16.8,3.54,25.56,4.17,5.64.4,10.44-4.05,10.44-9.7v-16.62c0-5.04-3.86-9.26-8.88-9.67ZM148.47,179.72c.02.1.05.19.07.28h-4.54c-19.88,0-36-16.12-36-36s16.12-36,36-36h4.54c-.02.09-.05.18-.07.28,17.77,2.2,31.53,17.36,31.53,35.72s-13.76,33.52-31.53,35.72Z" fill="#333132"/>
</svg>